<svg width="7" height="11" viewBox="0 0 7 11" fill="none" xmlns="http://www.w3.org/2000/svg">
<path d="M2.85511 10.9091H3.65625L3.66051 9.95034C5.46307 9.81824 6.49432 8.78699 6.49432 7.40631C6.49432 5.83386 5.09233 5.22449 3.98438 4.95176L3.6733 4.87079L3.68182 2.135C4.47869 2.24153 5.02415 2.68471 5.10511 3.38358H6.375C6.34091 2.08386 5.26705 1.11227 3.68608 0.984431L3.69034 5.48363e-05H2.8892L2.88494 0.992953C1.35511 1.14636 0.234375 2.10091 0.234375 3.47733C0.234375 4.69182 1.10369 5.40346 2.50568 5.78273L2.87216 5.88074L2.86364 8.78273C2.03267 8.68045 1.38921 8.22875 1.32102 7.40631H3.8743e-07C0.0809663 8.87648 1.14205 9.8225 2.85938 9.95034L2.85511 10.9091ZM3.66477 8.78273L3.6733 6.10233C4.53835 6.34096 5.19034 6.65631 5.19034 7.39352C5.19034 8.13926 4.56818 8.66341 3.66477 8.78273ZM2.87642 4.65773C2.24148 4.47023 1.54261 4.13358 1.54688 3.40062C1.54688 2.76142 2.05398 2.26284 2.88068 2.13926L2.87642 4.65773Z" fill="#363636"/>
</svg>
